<svg width="49" height="49" viewBox="0 0 49 49" fill="none" xmlns="http://www.w3.org/2000/svg">
<g clip-path="url(#clip0_546_5673)">
<path d="M10.2082 18.375C10.7497 18.375 11.269 18.5901 11.6518 18.973C12.0347 19.3559 12.2498 19.8752 12.2498 20.4166C15.4576 20.4119 18.5728 21.4911 21.0903 23.4791H25.5207C28.2422 23.4791 30.6861 24.6633 32.3684 26.5416H38.7915C40.7214 26.5411 42.6119 27.0877 44.2438 28.1179C45.8758 29.1481 47.1822 30.6199 48.0117 32.3624C43.1831 38.7345 35.3656 42.875 26.5415 42.875C20.8453 42.875 16.0269 41.6438 12.1273 39.4899C11.9845 39.8841 11.7236 40.2246 11.3801 40.465C11.0367 40.7054 10.6274 40.834 10.2082 40.8333H4.08317C3.54169 40.8333 3.02238 40.6182 2.63949 40.2353C2.25661 39.8524 2.0415 39.3331 2.0415 38.7916V20.4166C2.0415 19.8752 2.25661 19.3559 2.63949 18.973C3.02238 18.5901 3.54169 18.375 4.08317 18.375H10.2082ZM12.2519 24.5L12.2498 34.7532L12.3417 34.8186C16.0065 37.3911 20.7799 38.7916 26.5415 38.7916C32.6747 38.7916 38.3811 36.4315 42.538 32.4012L42.8095 32.1297L42.5645 31.9255C41.6004 31.1704 40.4318 30.7223 39.21 30.6393L38.7915 30.625H34.4815C34.6285 31.2824 34.7082 31.9643 34.7082 32.6666V34.7083H16.3332V30.625L30.1961 30.6229L30.1267 30.4637C29.7354 29.6461 29.1335 28.9474 28.3829 28.4393C27.6323 27.9312 26.76 27.6321 25.8555 27.5727L25.5207 27.5625H19.5386C18.5899 26.5921 17.4566 25.8213 16.2056 25.2954C14.9546 24.7694 13.611 24.499 12.2539 24.5H12.2519ZM8.1665 22.4583H6.12484V36.75H8.1665V22.4583ZM36.7498 10.2083C38.3743 10.2083 39.9322 10.8536 41.0809 12.0023C42.2295 13.1509 42.8748 14.7089 42.8748 16.3333C42.8748 17.9578 42.2295 19.5157 41.0809 20.6643C39.9322 21.813 38.3743 22.4583 36.7498 22.4583C35.1254 22.4583 33.5675 21.813 32.4188 20.6643C31.2701 19.5157 30.6248 17.9578 30.6248 16.3333C30.6248 14.7089 31.2701 13.1509 32.4188 12.0023C33.5675 10.8536 35.1254 10.2083 36.7498 10.2083ZM36.7498 14.2916C36.2084 14.2916 35.689 14.5067 35.3062 14.8896C34.9233 15.2725 34.7082 15.7918 34.7082 16.3333C34.7082 16.8748 34.9233 17.3941 35.3062 17.777C35.689 18.1599 36.2084 18.375 36.7498 18.375C37.2913 18.375 37.8106 18.1599 38.1935 17.777C38.5764 17.3941 38.7915 16.8748 38.7915 16.3333C38.7915 15.7918 38.5764 15.2725 38.1935 14.8896C37.8106 14.5067 37.2913 14.2916 36.7498 14.2916ZM22.4582 4.08331C24.0826 4.08331 25.6405 4.72862 26.7892 5.87728C27.9379 7.02594 28.5832 8.58386 28.5832 10.2083C28.5832 11.8328 27.9379 13.3907 26.7892 14.5393C25.6405 15.688 24.0826 16.3333 22.4582 16.3333C20.8337 16.3333 19.2758 15.688 18.1271 14.5393C16.9785 13.3907 16.3332 11.8328 16.3332 10.2083C16.3332 8.58386 16.9785 7.02594 18.1271 5.87728C19.2758 4.72862 20.8337 4.08331 22.4582 4.08331V4.08331ZM22.4582 8.16665C21.9167 8.16665 21.3974 8.38175 21.0145 8.76464C20.6316 9.14752 20.4165 9.66683 20.4165 10.2083C20.4165 10.7498 20.6316 11.2691 21.0145 11.652C21.3974 12.0349 21.9167 12.25 22.4582 12.25C22.9997 12.25 23.519 12.0349 23.9018 11.652C24.2847 11.2691 24.4998 10.7498 24.4998 10.2083C24.4998 9.66683 24.2847 9.14752 23.9018 8.76464C23.519 8.38175 22.9997 8.16665 22.4582 8.16665V8.16665Z" fill="black"/>
</g>
<defs>
<clipPath id="clip0_546_5673">
<rect width="49" height="49" fill="white"/>
</clipPath>
</defs>
</svg>
