<svg width="51" height="51" viewBox="0 0 51 51" fill="none" xmlns="http://www.w3.org/2000/svg">
<g clip-path="url(#clip0_546_5676)">
<path d="M17 10.625C17 8.37066 17.8955 6.20865 19.4896 4.61459C21.0837 3.02053 23.2457 2.125 25.5 2.125C27.7543 2.125 29.9163 3.02053 31.5104 4.61459C33.1045 6.20865 34 8.37066 34 10.625V21.7919C36.5988 23.6015 38.5523 26.1933 39.5762 29.19C40.6 32.1867 40.6407 35.432 39.6924 38.4535C38.7441 41.475 36.8562 44.1149 34.3036 45.9892C31.751 47.8634 28.6668 48.8741 25.5 48.8741C22.3332 48.8741 19.249 47.8634 16.6964 45.9892C14.1438 44.1149 12.2559 41.475 11.3076 38.4535C10.3593 35.432 10.4 32.1867 11.4238 29.19C12.4477 26.1933 14.4012 23.6015 17 21.7919V10.625ZM19.431 25.2769C17.5741 26.5691 16.1781 28.4202 15.4463 30.5608C14.7145 32.7014 14.685 35.0198 15.3621 37.1783C16.0393 39.3368 17.3877 41.2229 19.2111 42.5619C21.0345 43.9009 23.2377 44.623 25.5 44.623C27.7623 44.623 29.9655 43.9009 31.7889 42.5619C33.6123 41.2229 34.9607 39.3368 35.6379 37.1783C36.315 35.0198 36.2855 32.7014 35.5537 30.5608C34.8219 28.4202 33.4259 26.5691 31.569 25.2769L29.75 24.0083V10.625C29.75 9.49783 29.3022 8.41683 28.5052 7.6198C27.7082 6.82277 26.6272 6.375 25.5 6.375C24.3728 6.375 23.2918 6.82277 22.4948 7.6198C21.6978 8.41683 21.25 9.49783 21.25 10.625V24.0083L19.431 25.2769ZM17 34H34C34 36.2543 33.1045 38.4163 31.5104 40.0104C29.9163 41.6045 27.7543 42.5 25.5 42.5C23.2457 42.5 21.0837 41.6045 19.4896 40.0104C17.8955 38.4163 17 36.2543 17 34V34Z" fill="black"/>
</g>
<defs>
<clipPath id="clip0_546_5676">
<rect width="51" height="51" fill="white"/>
</clipPath>
</defs>
</svg>
