<svg width="47" height="47" viewBox="0 0 47 47" fill="none" xmlns="http://www.w3.org/2000/svg">
<g clip-path="url(#clip0_546_5680)">
<path d="M11.7498 3.91669C17.0178 3.91669 21.5885 6.88748 23.8856 11.2428C26.1906 7.9959 29.9819 5.87502 34.2707 5.87502H41.1248V10.7709C41.1248 17.8013 35.4261 23.5 28.3957 23.5H25.4582V25.4584H35.2498V39.1667C35.2498 41.3306 33.4971 43.0834 31.3332 43.0834H15.6665C13.5025 43.0834 11.7498 41.3306 11.7498 39.1667V25.4584H21.5415V21.5417H17.6248C10.0539 21.5417 3.9165 15.4043 3.9165 7.83335V3.91669H11.7498ZM31.3332 29.375H15.6665V39.1667H31.3332V29.375ZM37.2082 9.79169H34.2707C29.4042 9.79169 25.4582 13.7377 25.4582 18.6042V19.5834H28.3957C33.2621 19.5834 37.2082 15.6373 37.2082 10.7709V9.79169ZM11.7498 7.83335H7.83317C7.83317 13.2403 12.2179 17.625 17.6248 17.625H21.5415C21.5415 12.2181 17.1568 7.83335 11.7498 7.83335Z" fill="black"/>
</g>
<defs>
<clipPath id="clip0_546_5680">
<rect width="47" height="47" fill="white"/>
</clipPath>
</defs>
</svg>
